<mxfile host="app.diagrams.net" modified="2023-10-10T02:46:53.116Z" agent="Mozilla/5.0 (Macintosh; Intel Mac OS X 10_15_7) AppleWebKit/537.36 (KHTML, like Gecko) Chrome/116.0.0.0 Safari/537.36" etag="zgfp7aFqrgZoS3O0GCDV" version="21.8.2" type="github">
  <diagram name="第 1 页" id="FN30WBLlZ44B4vg287Xp">
    <mxGraphModel dx="2901" dy="1124" grid="1" gridSize="10" guides="1" tooltips="1" connect="1" arrows="1" fold="1" page="1" pageScale="1" pageWidth="827" pageHeight="1169" math="0" shadow="0">
      <root>
        <mxCell id="0" />
        <mxCell id="1" parent="0" />
        <mxCell id="yjhU5uWwSKPJSyR8dqcB-27" value="" style="edgeStyle=orthogonalEdgeStyle;rounded=0;hachureGap=4;orthogonalLoop=1;jettySize=auto;html=1;fontFamily=Architects Daughter;fontSource=https%3A%2F%2Ffonts.googleapis.com%2Fcss%3Ffamily%3DArchitects%2BDaughter;fontSize=16;" edge="1" parent="1" source="yjhU5uWwSKPJSyR8dqcB-15" target="yjhU5uWwSKPJSyR8dqcB-8">
          <mxGeometry relative="1" as="geometry" />
        </mxCell>
        <mxCell id="yjhU5uWwSKPJSyR8dqcB-15" value="" style="rounded=1;whiteSpace=wrap;html=1;hachureGap=4;fontFamily=Architects Daughter;fontSource=https%3A%2F%2Ffonts.googleapis.com%2Fcss%3Ffamily%3DArchitects%2BDaughter;fontSize=20;fillColor=none;strokeColor=#82b366;dashed=1;strokeWidth=3;" vertex="1" parent="1">
          <mxGeometry x="-250" y="240" width="200" height="243" as="geometry" />
        </mxCell>
        <mxCell id="yjhU5uWwSKPJSyR8dqcB-28" value="" style="edgeStyle=orthogonalEdgeStyle;rounded=0;hachureGap=4;orthogonalLoop=1;jettySize=auto;html=1;fontFamily=Architects Daughter;fontSource=https%3A%2F%2Ffonts.googleapis.com%2Fcss%3Ffamily%3DArchitects%2BDaughter;fontSize=16;" edge="1" parent="1" source="yjhU5uWwSKPJSyR8dqcB-14" target="yjhU5uWwSKPJSyR8dqcB-7">
          <mxGeometry relative="1" as="geometry" />
        </mxCell>
        <mxCell id="yjhU5uWwSKPJSyR8dqcB-14" value="" style="rounded=1;whiteSpace=wrap;html=1;hachureGap=4;fontFamily=Architects Daughter;fontSource=https%3A%2F%2Ffonts.googleapis.com%2Fcss%3Ffamily%3DArchitects%2BDaughter;fontSize=20;gradientColor=default;fillColor=none;strokeColor=#FF3333;dashed=1;strokeWidth=3;" vertex="1" parent="1">
          <mxGeometry x="-240" y="70" width="200" height="270" as="geometry" />
        </mxCell>
        <mxCell id="yjhU5uWwSKPJSyR8dqcB-30" value="" style="edgeStyle=orthogonalEdgeStyle;rounded=0;hachureGap=4;orthogonalLoop=1;jettySize=auto;html=1;fontFamily=Architects Daughter;fontSource=https%3A%2F%2Ffonts.googleapis.com%2Fcss%3Ffamily%3DArchitects%2BDaughter;fontSize=16;" edge="1" parent="1" source="yjhU5uWwSKPJSyR8dqcB-1" target="yjhU5uWwSKPJSyR8dqcB-5">
          <mxGeometry relative="1" as="geometry" />
        </mxCell>
        <mxCell id="yjhU5uWwSKPJSyR8dqcB-1" value="&lt;div style=&quot;font-size: medium; text-align: start;&quot; data-hash=&quot;3e876a85b5d10aff3f8d3b26989310c6&quot; data-version=&quot;3.0.0&quot;&gt;&lt;/div&gt;&lt;div style=&quot;font-size: medium; text-align: start;&quot;&gt;&lt;div class=&quot;document&quot;&gt;&lt;div class=&quot;section&quot;&gt;&lt;p style=&quot;margin: 3pt 0pt; font-family: 等线; font-size: 12pt; line-height: 20.8px;&quot; class=&quot;paragraph text-align-type-left&quot;&gt;dwd_app_vstart&lt;/p&gt;&lt;/div&gt;&lt;/div&gt;&lt;/div&gt;" style="rounded=1;whiteSpace=wrap;html=1;hachureGap=4;fontFamily=Architects Daughter;fontSource=https%3A%2F%2Ffonts.googleapis.com%2Fcss%3Ffamily%3DArchitects%2BDaughter;fontSize=20;" vertex="1" parent="1">
          <mxGeometry x="140" y="150" width="130" height="60" as="geometry" />
        </mxCell>
        <mxCell id="yjhU5uWwSKPJSyR8dqcB-31" value="" style="edgeStyle=orthogonalEdgeStyle;rounded=0;hachureGap=4;orthogonalLoop=1;jettySize=auto;html=1;fontFamily=Architects Daughter;fontSource=https%3A%2F%2Ffonts.googleapis.com%2Fcss%3Ffamily%3DArchitects%2BDaughter;fontSize=16;" edge="1" parent="1" source="yjhU5uWwSKPJSyR8dqcB-2" target="yjhU5uWwSKPJSyR8dqcB-6">
          <mxGeometry relative="1" as="geometry" />
        </mxCell>
        <mxCell id="yjhU5uWwSKPJSyR8dqcB-2" value="&lt;div style=&quot;font-size: medium; text-align: start;&quot; data-hash=&quot;3e876a85b5d10aff3f8d3b26989310c6&quot; data-version=&quot;3.0.0&quot;&gt;&lt;/div&gt;&lt;div style=&quot;font-size: medium; text-align: start;&quot;&gt;&lt;div class=&quot;document&quot;&gt;&lt;div class=&quot;section&quot;&gt;&lt;p style=&quot;margin: 3pt 0pt; font-family: 等线; font-size: 12pt; line-height: 20.8px;&quot; class=&quot;paragraph text-align-type-left&quot;&gt;dwd_app_vfinish&lt;/p&gt;&lt;/div&gt;&lt;/div&gt;&lt;/div&gt;" style="rounded=1;whiteSpace=wrap;html=1;hachureGap=4;fontFamily=Architects Daughter;fontSource=https%3A%2F%2Ffonts.googleapis.com%2Fcss%3Ffamily%3DArchitects%2BDaughter;fontSize=20;" vertex="1" parent="1">
          <mxGeometry x="140" y="347.5" width="130" height="60" as="geometry" />
        </mxCell>
        <mxCell id="yjhU5uWwSKPJSyR8dqcB-3" value="&lt;div style=&quot;font-size: medium; text-align: start;&quot; data-hash=&quot;3e876a85b5d10aff3f8d3b26989310c6&quot; data-version=&quot;3.0.0&quot;&gt;&lt;/div&gt;&lt;div style=&quot;font-size: medium; text-align: start;&quot;&gt;&lt;div class=&quot;document&quot;&gt;&lt;div class=&quot;section&quot;&gt;&lt;p style=&quot;margin: 3pt 0pt; font-family: 等线; font-size: 12pt; line-height: 20.8px;&quot; class=&quot;paragraph text-align-type-left&quot;&gt;dwd_app_vstart_security&lt;/p&gt;&lt;/div&gt;&lt;/div&gt;&lt;/div&gt;" style="rounded=1;whiteSpace=wrap;html=1;hachureGap=4;fontFamily=Architects Daughter;fontSource=https%3A%2F%2Ffonts.googleapis.com%2Fcss%3Ffamily%3DArchitects%2BDaughter;fontSize=20;" vertex="1" parent="1">
          <mxGeometry x="520" y="150" width="200" height="60" as="geometry" />
        </mxCell>
        <mxCell id="yjhU5uWwSKPJSyR8dqcB-4" value="&lt;div style=&quot;font-size: medium; text-align: start;&quot; data-hash=&quot;3e876a85b5d10aff3f8d3b26989310c6&quot; data-version=&quot;3.0.0&quot;&gt;&lt;/div&gt;&lt;div style=&quot;font-size: medium; text-align: start;&quot;&gt;&lt;div class=&quot;document&quot;&gt;&lt;div class=&quot;section&quot;&gt;&lt;p style=&quot;margin: 3pt 0pt; font-family: 等线; font-size: 12pt; line-height: 20.8px;&quot; class=&quot;paragraph text-align-type-left&quot;&gt;dwd_app_vfinish_security&lt;/p&gt;&lt;/div&gt;&lt;/div&gt;&lt;/div&gt;" style="rounded=1;whiteSpace=wrap;html=1;hachureGap=4;fontFamily=Architects Daughter;fontSource=https%3A%2F%2Ffonts.googleapis.com%2Fcss%3Ffamily%3DArchitects%2BDaughter;fontSize=20;" vertex="1" parent="1">
          <mxGeometry x="520" y="347.5" width="200" height="60" as="geometry" />
        </mxCell>
        <mxCell id="yjhU5uWwSKPJSyR8dqcB-33" value="" style="edgeStyle=orthogonalEdgeStyle;rounded=0;hachureGap=4;orthogonalLoop=1;jettySize=auto;html=1;fontFamily=Architects Daughter;fontSource=https%3A%2F%2Ffonts.googleapis.com%2Fcss%3Ffamily%3DArchitects%2BDaughter;fontSize=16;" edge="1" parent="1" source="yjhU5uWwSKPJSyR8dqcB-5" target="yjhU5uWwSKPJSyR8dqcB-3">
          <mxGeometry relative="1" as="geometry" />
        </mxCell>
        <mxCell id="yjhU5uWwSKPJSyR8dqcB-39" value="" style="edgeStyle=orthogonalEdgeStyle;rounded=0;hachureGap=4;orthogonalLoop=1;jettySize=auto;html=1;fontFamily=Architects Daughter;fontSource=https%3A%2F%2Ffonts.googleapis.com%2Fcss%3Ffamily%3DArchitects%2BDaughter;fontSize=16;" edge="1" parent="1" source="yjhU5uWwSKPJSyR8dqcB-5" target="yjhU5uWwSKPJSyR8dqcB-37">
          <mxGeometry relative="1" as="geometry" />
        </mxCell>
        <mxCell id="yjhU5uWwSKPJSyR8dqcB-5" value="&lt;div style=&quot;font-size: medium; text-align: start;&quot; data-hash=&quot;3e876a85b5d10aff3f8d3b26989310c6&quot; data-version=&quot;3.0.0&quot;&gt;&lt;/div&gt;&lt;div style=&quot;font-size: medium; text-align: start;&quot;&gt;&lt;div class=&quot;document&quot;&gt;&lt;div class=&quot;section&quot;&gt;&lt;p style=&quot;margin: 3pt 0pt; font-family: 等线; font-size: 12pt; line-height: 20.8px;&quot; class=&quot;paragraph text-align-type-left&quot;&gt;flink etl&lt;/p&gt;&lt;div data-hash=&quot;96cef91ce78fa11066456db9b1275661&quot; data-version=&quot;3.0.0&quot;&gt;&lt;/div&gt;&lt;div&gt;&lt;div class=&quot;document&quot;&gt;&lt;div class=&quot;section&quot;&gt;&lt;p style=&quot;margin: 3pt 0pt; font-family: 等线; font-size: 12pt; line-height: 20.8px;&quot; class=&quot;paragraph text-align-type-left&quot;&gt;41152&lt;/p&gt;&lt;/div&gt;&lt;/div&gt;&lt;/div&gt;&lt;/div&gt;&lt;/div&gt;&lt;/div&gt;" style="rounded=1;whiteSpace=wrap;html=1;hachureGap=4;fontFamily=Architects Daughter;fontSource=https%3A%2F%2Ffonts.googleapis.com%2Fcss%3Ffamily%3DArchitects%2BDaughter;fontSize=20;fillColor=#dae8fc;strokeColor=#6c8ebf;" vertex="1" parent="1">
          <mxGeometry x="350" y="160" width="80" height="40" as="geometry" />
        </mxCell>
        <mxCell id="yjhU5uWwSKPJSyR8dqcB-32" value="" style="edgeStyle=orthogonalEdgeStyle;rounded=0;hachureGap=4;orthogonalLoop=1;jettySize=auto;html=1;fontFamily=Architects Daughter;fontSource=https%3A%2F%2Ffonts.googleapis.com%2Fcss%3Ffamily%3DArchitects%2BDaughter;fontSize=16;" edge="1" parent="1" source="yjhU5uWwSKPJSyR8dqcB-6" target="yjhU5uWwSKPJSyR8dqcB-4">
          <mxGeometry relative="1" as="geometry" />
        </mxCell>
        <mxCell id="yjhU5uWwSKPJSyR8dqcB-6" value="&lt;div style=&quot;font-size: medium; text-align: start;&quot; data-hash=&quot;3e876a85b5d10aff3f8d3b26989310c6&quot; data-version=&quot;3.0.0&quot;&gt;&lt;/div&gt;&lt;div style=&quot;font-size: medium; text-align: start;&quot;&gt;&lt;div class=&quot;document&quot;&gt;&lt;div class=&quot;section&quot;&gt;&lt;p style=&quot;margin: 3pt 0pt; font-family: 等线; font-size: 12pt; line-height: 20.8px;&quot; class=&quot;paragraph text-align-type-left&quot;&gt;flink etl&lt;/p&gt;&lt;p style=&quot;margin: 3pt 0pt; font-family: 等线; font-size: 12pt; line-height: 20.8px;&quot; class=&quot;paragraph text-align-type-left&quot;&gt;52002&lt;/p&gt;&lt;/div&gt;&lt;/div&gt;&lt;/div&gt;" style="rounded=1;whiteSpace=wrap;html=1;hachureGap=4;fontFamily=Architects Daughter;fontSource=https%3A%2F%2Ffonts.googleapis.com%2Fcss%3Ffamily%3DArchitects%2BDaughter;fontSize=20;fillColor=#dae8fc;strokeColor=#6c8ebf;" vertex="1" parent="1">
          <mxGeometry x="350" y="357.5" width="80" height="40" as="geometry" />
        </mxCell>
        <mxCell id="yjhU5uWwSKPJSyR8dqcB-29" value="" style="edgeStyle=orthogonalEdgeStyle;rounded=0;hachureGap=4;orthogonalLoop=1;jettySize=auto;html=1;fontFamily=Architects Daughter;fontSource=https%3A%2F%2Ffonts.googleapis.com%2Fcss%3Ffamily%3DArchitects%2BDaughter;fontSize=16;" edge="1" parent="1" source="yjhU5uWwSKPJSyR8dqcB-7" target="yjhU5uWwSKPJSyR8dqcB-1">
          <mxGeometry relative="1" as="geometry" />
        </mxCell>
        <mxCell id="yjhU5uWwSKPJSyR8dqcB-7" value="&lt;div style=&quot;font-size: medium; text-align: start;&quot; data-hash=&quot;3e876a85b5d10aff3f8d3b26989310c6&quot; data-version=&quot;3.0.0&quot;&gt;&lt;/div&gt;&lt;div style=&quot;font-size: medium; text-align: start;&quot;&gt;&lt;div class=&quot;document&quot;&gt;&lt;div class=&quot;section&quot;&gt;&lt;p style=&quot;margin: 3pt 0pt; font-family: 等线; font-size: 12pt; line-height: 20.8px;&quot; class=&quot;paragraph text-align-type-left&quot;&gt;flink etl&lt;/p&gt;&lt;div data-hash=&quot;96cef91ce78fa11066456db9b1275661&quot; data-version=&quot;3.0.0&quot;&gt;&lt;/div&gt;&lt;div&gt;&lt;div class=&quot;document&quot;&gt;&lt;div class=&quot;section&quot;&gt;&lt;p style=&quot;margin: 3pt 0pt; font-family: 等线; font-size: 12pt; line-height: 20.8px;&quot; class=&quot;paragraph text-align-type-left&quot;&gt;36047&lt;/p&gt;&lt;/div&gt;&lt;/div&gt;&lt;/div&gt;&lt;/div&gt;&lt;/div&gt;&lt;/div&gt;" style="rounded=1;whiteSpace=wrap;html=1;hachureGap=4;fontFamily=Architects Daughter;fontSource=https%3A%2F%2Ffonts.googleapis.com%2Fcss%3Ffamily%3DArchitects%2BDaughter;fontSize=20;fillColor=#dae8fc;strokeColor=#6c8ebf;" vertex="1" parent="1">
          <mxGeometry y="160" width="80" height="40" as="geometry" />
        </mxCell>
        <mxCell id="yjhU5uWwSKPJSyR8dqcB-34" value="" style="edgeStyle=orthogonalEdgeStyle;rounded=0;hachureGap=4;orthogonalLoop=1;jettySize=auto;html=1;fontFamily=Architects Daughter;fontSource=https%3A%2F%2Ffonts.googleapis.com%2Fcss%3Ffamily%3DArchitects%2BDaughter;fontSize=16;" edge="1" parent="1" source="yjhU5uWwSKPJSyR8dqcB-8" target="yjhU5uWwSKPJSyR8dqcB-2">
          <mxGeometry relative="1" as="geometry" />
        </mxCell>
        <mxCell id="yjhU5uWwSKPJSyR8dqcB-8" value="&lt;div style=&quot;font-size: medium; text-align: start;&quot; data-hash=&quot;3e876a85b5d10aff3f8d3b26989310c6&quot; data-version=&quot;3.0.0&quot;&gt;&lt;/div&gt;&lt;div style=&quot;font-size: medium; text-align: start;&quot;&gt;&lt;div class=&quot;document&quot;&gt;&lt;div class=&quot;section&quot;&gt;&lt;p style=&quot;margin: 3pt 0pt; font-family: 等线; font-size: 12pt; line-height: 20.8px;&quot; class=&quot;paragraph text-align-type-left&quot;&gt;flink etl&lt;/p&gt;&lt;p style=&quot;margin: 3pt 0pt; font-family: 等线; font-size: 12pt; line-height: 20.8px;&quot; class=&quot;paragraph text-align-type-left&quot;&gt;35925&lt;/p&gt;&lt;/div&gt;&lt;/div&gt;&lt;/div&gt;" style="rounded=1;whiteSpace=wrap;html=1;hachureGap=4;fontFamily=Architects Daughter;fontSource=https%3A%2F%2Ffonts.googleapis.com%2Fcss%3Ffamily%3DArchitects%2BDaughter;fontSize=20;fillColor=#dae8fc;strokeColor=#6c8ebf;" vertex="1" parent="1">
          <mxGeometry y="357.5" width="80" height="40" as="geometry" />
        </mxCell>
        <mxCell id="yjhU5uWwSKPJSyR8dqcB-9" value="&lt;div style=&quot;font-size: medium; text-align: start;&quot; data-hash=&quot;3e876a85b5d10aff3f8d3b26989310c6&quot; data-version=&quot;3.0.0&quot;&gt;&lt;/div&gt;&lt;div style=&quot;font-size: medium; text-align: start;&quot;&gt;&lt;div class=&quot;document&quot;&gt;&lt;div class=&quot;section&quot;&gt;&lt;p style=&quot;margin: 3pt 0pt; font-family: 等线; font-size: 12pt; line-height: 20.8px;&quot; class=&quot;paragraph text-align-type-left&quot;&gt;multi_dwd_app_vstart&lt;/p&gt;&lt;/div&gt;&lt;/div&gt;&lt;/div&gt;" style="rounded=1;whiteSpace=wrap;html=1;hachureGap=4;fontFamily=Architects Daughter;fontSource=https%3A%2F%2Ffonts.googleapis.com%2Fcss%3Ffamily%3DArchitects%2BDaughter;fontSize=20;" vertex="1" parent="1">
          <mxGeometry x="-220" y="100" width="160" height="60" as="geometry" />
        </mxCell>
        <mxCell id="yjhU5uWwSKPJSyR8dqcB-10" value="&lt;div style=&quot;font-size: medium; text-align: start;&quot; data-hash=&quot;3e876a85b5d10aff3f8d3b26989310c6&quot; data-version=&quot;3.0.0&quot;&gt;&lt;/div&gt;&lt;div style=&quot;font-size: medium; text-align: start;&quot;&gt;&lt;div class=&quot;document&quot;&gt;&lt;div class=&quot;section&quot;&gt;&lt;p style=&quot;margin: 3pt 0pt; font-family: 等线; font-size: 12pt; line-height: 20.8px;&quot; class=&quot;paragraph text-align-type-left&quot;&gt;h5&lt;br&gt;&lt;/p&gt;&lt;/div&gt;&lt;/div&gt;&lt;/div&gt;" style="rounded=1;whiteSpace=wrap;html=1;hachureGap=4;fontFamily=Architects Daughter;fontSource=https%3A%2F%2Ffonts.googleapis.com%2Fcss%3Ffamily%3DArchitects%2BDaughter;fontSize=20;" vertex="1" parent="1">
          <mxGeometry x="-210" y="260" width="140" height="60" as="geometry" />
        </mxCell>
        <mxCell id="yjhU5uWwSKPJSyR8dqcB-11" value="&lt;div style=&quot;font-size: medium; text-align: start;&quot; data-hash=&quot;3e876a85b5d10aff3f8d3b26989310c6&quot; data-version=&quot;3.0.0&quot;&gt;&lt;/div&gt;&lt;div style=&quot;font-size: medium; text-align: start;&quot;&gt;&lt;div class=&quot;document&quot;&gt;&lt;div class=&quot;section&quot;&gt;&lt;p style=&quot;margin: 3pt 0pt; font-family: 等线; font-size: 12pt; line-height: 20.8px;&quot; class=&quot;paragraph text-align-type-left&quot;&gt;multi_dwd_app_vfinish&lt;/p&gt;&lt;/div&gt;&lt;/div&gt;&lt;/div&gt;" style="rounded=1;whiteSpace=wrap;html=1;hachureGap=4;fontFamily=Architects Daughter;fontSource=https%3A%2F%2Ffonts.googleapis.com%2Fcss%3Ffamily%3DArchitects%2BDaughter;fontSize=20;" vertex="1" parent="1">
          <mxGeometry x="-229" y="407.5" width="169" height="60" as="geometry" />
        </mxCell>
        <mxCell id="yjhU5uWwSKPJSyR8dqcB-36" value="" style="edgeStyle=orthogonalEdgeStyle;rounded=0;hachureGap=4;orthogonalLoop=1;jettySize=auto;html=1;fontFamily=Architects Daughter;fontSource=https%3A%2F%2Ffonts.googleapis.com%2Fcss%3Ffamily%3DArchitects%2BDaughter;fontSize=16;" edge="1" parent="1" source="yjhU5uWwSKPJSyR8dqcB-35" target="yjhU5uWwSKPJSyR8dqcB-5">
          <mxGeometry relative="1" as="geometry" />
        </mxCell>
        <mxCell id="yjhU5uWwSKPJSyR8dqcB-35" value="&lt;div style=&quot;font-size: medium; text-align: start;&quot; data-hash=&quot;3e876a85b5d10aff3f8d3b26989310c6&quot; data-version=&quot;3.0.0&quot;&gt;&lt;/div&gt;&lt;div style=&quot;font-size: medium; text-align: start;&quot;&gt;&lt;div class=&quot;document&quot;&gt;&lt;div class=&quot;section&quot;&gt;&lt;p style=&quot;margin: 3pt 0pt; font-family: 等线; font-size: 12pt; line-height: 20.8px;&quot; class=&quot;paragraph text-align-type-left&quot;&gt;OVB反作弊接口&lt;/p&gt;&lt;/div&gt;&lt;/div&gt;&lt;/div&gt;" style="rounded=1;whiteSpace=wrap;html=1;hachureGap=4;fontFamily=Architects Daughter;fontSource=https%3A%2F%2Ffonts.googleapis.com%2Fcss%3Ffamily%3DArchitects%2BDaughter;fontSize=20;fillColor=#f8cecc;strokeColor=#b85450;" vertex="1" parent="1">
          <mxGeometry x="325" y="50" width="130" height="60" as="geometry" />
        </mxCell>
        <mxCell id="yjhU5uWwSKPJSyR8dqcB-40" value="" style="edgeStyle=orthogonalEdgeStyle;rounded=0;hachureGap=4;orthogonalLoop=1;jettySize=auto;html=1;fontFamily=Architects Daughter;fontSource=https%3A%2F%2Ffonts.googleapis.com%2Fcss%3Ffamily%3DArchitects%2BDaughter;fontSize=16;" edge="1" parent="1" source="yjhU5uWwSKPJSyR8dqcB-37" target="yjhU5uWwSKPJSyR8dqcB-6">
          <mxGeometry relative="1" as="geometry" />
        </mxCell>
        <mxCell id="yjhU5uWwSKPJSyR8dqcB-37" value="&lt;div style=&quot;font-size: medium; text-align: start;&quot; data-hash=&quot;3e876a85b5d10aff3f8d3b26989310c6&quot; data-version=&quot;3.0.0&quot;&gt;&lt;/div&gt;&lt;div style=&quot;font-size: medium; text-align: start;&quot;&gt;&lt;div class=&quot;document&quot;&gt;&lt;div class=&quot;section&quot;&gt;&lt;p style=&quot;margin: 3pt 0pt; font-family: 等线; font-size: 12pt; line-height: 20.8px;&quot; class=&quot;paragraph text-align-type-left&quot;&gt;vstart_security_fingerprint&lt;/p&gt;&lt;/div&gt;&lt;/div&gt;&lt;/div&gt;" style="rounded=1;whiteSpace=wrap;html=1;hachureGap=4;fontFamily=Architects Daughter;fontSource=https%3A%2F%2Ffonts.googleapis.com%2Fcss%3Ffamily%3DArchitects%2BDaughter;fontSize=20;" vertex="1" parent="1">
          <mxGeometry x="290" y="250" width="200" height="60" as="geometry" />
        </mxCell>
        <mxCell id="yjhU5uWwSKPJSyR8dqcB-42" value="" style="edgeStyle=orthogonalEdgeStyle;rounded=0;hachureGap=4;orthogonalLoop=1;jettySize=auto;html=1;fontFamily=Architects Daughter;fontSource=https%3A%2F%2Ffonts.googleapis.com%2Fcss%3Ffamily%3DArchitects%2BDaughter;fontSize=16;" edge="1" parent="1" source="yjhU5uWwSKPJSyR8dqcB-41" target="yjhU5uWwSKPJSyR8dqcB-7">
          <mxGeometry relative="1" as="geometry" />
        </mxCell>
        <mxCell id="yjhU5uWwSKPJSyR8dqcB-43" value="" style="edgeStyle=orthogonalEdgeStyle;rounded=0;hachureGap=4;orthogonalLoop=1;jettySize=auto;html=1;fontFamily=Architects Daughter;fontSource=https%3A%2F%2Ffonts.googleapis.com%2Fcss%3Ffamily%3DArchitects%2BDaughter;fontSize=16;" edge="1" parent="1" source="yjhU5uWwSKPJSyR8dqcB-41" target="yjhU5uWwSKPJSyR8dqcB-8">
          <mxGeometry relative="1" as="geometry" />
        </mxCell>
        <mxCell id="yjhU5uWwSKPJSyR8dqcB-41" value="&lt;div style=&quot;font-size: medium; text-align: start;&quot; data-hash=&quot;3e876a85b5d10aff3f8d3b26989310c6&quot; data-version=&quot;3.0.0&quot;&gt;&lt;/div&gt;&lt;div style=&quot;font-size: medium; text-align: start;&quot;&gt;&lt;div class=&quot;document&quot;&gt;&lt;div class=&quot;section&quot;&gt;&lt;p style=&quot;margin: 3pt 0pt; font-family: 等线; font-size: 12pt; line-height: 20.8px;&quot; class=&quot;paragraph text-align-type-left&quot;&gt;媒资接口&lt;/p&gt;&lt;/div&gt;&lt;/div&gt;&lt;/div&gt;" style="rounded=1;whiteSpace=wrap;html=1;hachureGap=4;fontFamily=Architects Daughter;fontSource=https%3A%2F%2Ffonts.googleapis.com%2Fcss%3Ffamily%3DArchitects%2BDaughter;fontSize=20;fillColor=#f8cecc;strokeColor=#b85450;" vertex="1" parent="1">
          <mxGeometry x="-15" y="250" width="110" height="60" as="geometry" />
        </mxCell>
      </root>
    </mxGraphModel>
  </diagram>
</mxfile>
